<svg width="87" height="51" viewBox="0 0 87 51" fill="none" xmlns="http://www.w3.org/2000/svg">
<path fill-rule="evenodd" clip-rule="evenodd" d="M87 0H0V51H87V0ZM82 4H5V47H82V4Z" fill="#0EC99D"/>
<path d="M43.736 11.096H48.488V14.336C49.256 13.136 50.24 12.176 51.44 11.456C52.64 10.688 53.888 10.304 55.184 10.304C56.624 10.304 57.872 10.76 58.928 11.672C60.032 12.584 60.728 13.736 61.016 15.128C61.64 13.688 62.624 12.536 63.968 11.672C65.312 10.76 66.8 10.304 68.432 10.304C70.592 10.304 72.2 11.096 73.256 12.68C74.36 14.216 74.864 16.232 74.768 18.728V44H70.016V20.672C70.016 17.936 69.752 16.16 69.224 15.344C68.696 14.528 67.928 14.12 66.92 14.12C66.056 14.12 65.216 14.528 64.4 15.344C63.584 16.16 62.912 17.216 62.384 18.512C61.904 19.76 61.664 21.008 61.664 22.256V44H56.84V21.104C56.84 18.416 56.576 16.616 56.048 15.704C55.568 14.744 54.632 14.264 53.24 14.264C52.52 14.264 51.776 14.6 51.008 15.272C50.288 15.896 49.688 16.808 49.208 18.008C48.728 19.16 48.488 20.504 48.488 22.04V44H43.736V11.096Z" fill="white"/>
<path d="M29.264 10.304C32.768 10.304 35.672 11.504 37.976 13.904L35.672 17.936L35.384 18.584L34.88 18.296C34.736 17.768 34.568 17.36 34.376 17.072C34.184 16.736 33.776 16.376 33.152 15.992C31.904 15.176 30.488 14.768 28.904 14.768C27.176 14.768 25.544 15.2 24.008 16.064C22.472 16.928 21.224 18.248 20.264 20.024C19.304 21.752 18.824 23.936 18.824 26.576V44.072H13.568V11.096H18.968L18.824 17.144C19.736 14.984 21.128 13.304 23 12.104C24.92 10.904 27.008 10.304 29.264 10.304Z" fill="white"/>
</svg>
